<svg width="505" height="175" viewBox="0 0 505 175" fill="none" xmlns="http://www.w3.org/2000/svg">
<g clip-path="url(#clip0_31_843)">
<path d="M104.1 108.99C102.72 89.04 86.4399 72.96 66.4699 71.8C56.5499 71.22 47.3499 74.26 40.0799 79.71C37.5099 81.62 34.5199 82.97 31.3299 83.21C21.8599 83.93 16.4499 75.71 14.8299 72.76C14.5699 72.3 14.8999 71.73 15.4299 71.73H62.4299V64.54C62.4299 59.4 61.3899 54.27 59.0699 49.69C50.2699 32.3 30.1899 33.23 30.1899 33.23C11.8599 35.11 4.55995 46.06 1.64995 55.02C-1.05005 63.37 -0.420053 72.54 3.45995 80.42C11.1199 96.01 26.9699 96.61 26.9699 96.61C32.4899 96.91 38.1299 96.48 41.5399 95.34C48.9399 92.86 60.6099 81.15 75.3299 87.88C90.0399 94.62 90.2199 105.51 90.2199 105.51H24.4699C24.1399 107.57 23.9699 109.69 23.9699 111.85C23.9699 134.01 41.9299 151.97 64.0799 151.97C86.2299 151.97 105.72 132.44 104.1 108.99ZM31.9199 45.94C44.8099 46.67 47.8999 57.93 47.8999 57.93H14.1199C14.1199 57.93 19.0199 45.21 31.9199 45.94ZM64.0899 139.48C45.7599 140.02 39.5499 119.13 39.5499 119.13H90.5799C90.2199 122.59 82.4099 138.93 64.0899 139.48Z" fill="#1D1D1B"/>
<path d="M100.65 54.58H69.73V65.48H100.65V54.58Z" fill="#1D1D1B"/>
<path d="M119.85 0H109.32V95.53H119.85V0Z" fill="#1D1D1B"/>
<path d="M188.677 69.861C188.895 68.4343 189 66.979 189 65.4952C189 49.202 175.788 36 159.495 36C143.202 36 130 49.202 130 65.4952C130 81.7885 143.202 95 159.495 95C167.875 95 175.437 91.5093 180.801 85.907L173.163 76.7664C173.163 76.7664 161.245 87.6191 150.878 80.124C150.878 80.124 144.315 77.1088 145.18 69.861H188.677ZM144.838 58.2189C144.838 58.2189 149.099 46.4151 160.342 47.1C171.565 47.7753 174.257 58.2189 174.257 58.2189H144.838Z" fill="#1D1D1B"/>
<path d="M231.07 134.72C231.22 133.74 231.29 132.74 231.29 131.73C231.29 120.55 222.23 111.49 211.05 111.49C199.87 111.49 190.81 120.55 190.81 131.73C190.81 142.91 199.87 151.97 211.05 151.97C216.8 151.97 221.98 149.57 225.67 145.73L220.43 139.46C220.43 139.46 212.25 146.91 205.13 141.76C205.13 141.76 200.63 139.69 201.23 134.72H231.07ZM200.99 126.73C200.99 126.73 203.91 118.63 211.63 119.1C219.33 119.57 221.18 126.73 221.18 126.73H200.99Z" fill="#1D1D1B"/>
<path d="M311.19 134.72C311.34 133.74 311.41 132.74 311.41 131.73C311.41 120.55 302.35 111.49 291.17 111.49C279.99 111.49 270.93 120.55 270.93 131.73C270.93 142.91 279.99 151.97 291.17 151.97C296.92 151.97 302.11 149.57 305.79 145.73L300.55 139.46C300.55 139.46 292.37 146.91 285.26 141.76C285.26 141.76 280.76 139.69 281.35 134.72H311.19ZM281.11 126.73C281.11 126.73 284.04 118.63 291.75 119.1C299.45 119.57 301.3 126.73 301.3 126.73H281.11Z" fill="#1D1D1B"/>
<path d="M435.39 134.72C435.54 133.74 435.61 132.74 435.61 131.73C435.61 120.55 426.55 111.49 415.37 111.49C404.19 111.49 395.13 120.55 395.13 131.73C395.13 142.91 404.19 151.97 415.37 151.97C421.12 151.97 426.3 149.57 429.99 145.73L424.74 139.46C424.74 139.46 416.57 146.91 409.45 141.76C409.45 141.76 404.95 139.69 405.55 134.72H435.39ZM405.31 126.73C405.31 126.73 408.23 118.63 415.95 119.1C423.65 119.57 425.5 126.73 425.5 126.73H405.31Z" fill="#1D1D1B"/>
<path d="M243 82.46V59.88C243 55.08 241.46 50.38 238.5 46.6C233.52 40.26 223.35 33.52 203.22 37.41L208.31 49.77C208.31 49.77 223.2 46.31 230.1 57.21C230.1 57.21 209.54 52.86 201.49 66C195.04 76.54 200.53 90.6 212.36 94.14C215.44 95.06 219.18 95.6 223.75 95.53H255.9V82.46H243ZM229.92 83H218.84C218.84 83 212.12 82.46 211.76 76.1C211.4 69.74 219.21 70.47 229.92 71.02V83Z" fill="#1D1D1B"/>
<path d="M295.22 34.96V48.49C295.22 48.49 287.79 46.32 282.9 52.76C281.1 55.14 280.23 58.09 280.23 61.07V95.53H267.16V35.59H280.23V39.63C283.75 37.25 290.38 33.48 295.22 34.95V34.96Z" fill="#1D1D1B"/>
<path d="M350.61 55.85V89.99C350.61 91.91 350.61 93.51 350.61 95.54H337.35C337.35 95.54 338.09 66.7 336.99 58.39C335.63 48.13 325.91 47.13 325.91 47.13C325.57 47.11 325.24 47.08 324.92 47.09C315.74 47.58 311.2 53.38 311.2 60.99V95.54H298.47C298.47 93.46 298.44 91.91 298.44 89.99V55.86C298.44 43.82 308.29 33.96 320.34 33.96H328.72C340.76 33.96 350.61 43.81 350.61 55.85Z" fill="#1D1D1B"/>
<path d="M435.61 55.85V89.99C435.61 91.91 435.61 93.51 435.61 95.54H422.35C422.35 95.54 423.09 66.7 421.99 58.39C420.63 48.13 410.91 47.13 410.91 47.13C410.57 47.11 410.24 47.08 409.92 47.09C400.74 47.58 396.2 53.38 396.2 60.99V95.54H383.47C383.47 93.46 383.44 91.91 383.44 89.99V55.86C383.44 43.82 393.29 33.96 405.34 33.96H413.72C425.76 33.96 435.61 43.81 435.61 55.85Z" fill="#1D1D1B"/>
<path d="M372.17 35.21H361.14V95.54H372.17V35.21Z" fill="#1D1D1B"/>
<path d="M366.66 29.44C370.797 29.44 374.15 25.6479 374.15 20.97C374.15 16.2921 370.797 12.5 366.66 12.5C362.523 12.5 359.17 16.2921 359.17 20.97C359.17 25.6479 362.523 29.44 366.66 29.44Z" fill="#1D1D1B"/>
<path d="M268.03 110.83H259.64V151.97H268.03V110.83Z" fill="#1D1D1B"/>
<path d="M263.84 106.72C266.574 106.72 268.79 104.504 268.79 101.77C268.79 99.0362 266.574 96.82 263.84 96.82C261.106 96.82 258.89 99.0362 258.89 101.77C258.89 104.504 261.106 106.72 263.84 106.72Z" fill="#1D1D1B"/>
<path d="M106.41 111.49L118.04 130.92L104.2 151.97H114.59L124.39 137.82L132.75 151.97H143.1L128.78 130.74L139.29 111.49H128.78L123.65 122.02L117.49 111.49H106.41Z" fill="#1D1D1B"/>
<path d="M165.26 111.31C143.67 111.9 144.69 133.83 144.69 133.83V174.69H154.23V149.52C157.39 151.71 161.18 152.98 165.26 152.98C176.29 152.98 185.24 143.65 185.24 132.14C185.24 120.63 176.29 111.01 165.26 111.31ZM165.26 143.64C158.41 143.64 152.86 138.09 152.86 131.24C152.86 124.39 158.41 118.84 165.26 118.84C172.11 118.84 177.66 124.39 177.66 131.24C177.66 138.09 172.11 143.64 165.26 143.64Z" fill="#1D1D1B"/>
<path d="M254.67 110.97V120.23C248.81 120.65 246.08 123.25 244.82 125.68V151.97H235.87V111.3H244.82V114.5C249.31 109.74 254.67 110.97 254.67 110.97Z" fill="#1D1D1B"/>
<path d="M350.93 125.86V151.97H342.05V125.87C342.05 122.38 339.2 119.53 335.71 119.53H332.36C328.88 119.53 326.03 122.38 326.03 125.87V151.97H316.62V125.86C316.62 117.96 323.09 111.49 330.99 111.49H336.56C344.46 111.49 350.93 117.96 350.93 125.86Z" fill="#1D1D1B"/>
<path d="M386.75 139.14L392.43 145.93C388.78 150.17 383.5 152.84 377.63 152.84C366.59 152.84 357.64 143.39 357.64 131.73C357.64 120.07 366.59 110.62 377.63 110.62C383.63 110.62 389.02 113.41 392.68 117.83L385.8 123.95C383.75 121.79 380.84 120.45 377.63 120.45C371.41 120.45 366.36 125.5 366.36 131.73C366.36 137.96 371.41 143.01 377.63 143.01C381.2 143.01 384.38 141.35 386.45 138.77L386.75 139.14Z" fill="#1D1D1B"/>
<path d="M504.22 66.7C504.22 49.31 490.72 35.21 474.06 35.21C457.4 35.21 443.89 49.31 443.89 66.7C443.89 84.09 457.4 98.19 474.06 98.19C479.81 98.19 485.19 96.51 489.76 93.59C489.69 100.35 488.29 112.19 479.78 116.13C467.61 121.76 457.44 118.12 450.17 108.86L440.18 115.4C440.18 115.4 446.72 130.44 467.43 131.73C488.13 133.02 504.33 115.76 504.22 99.78C504.12 83.8 504.22 66.7 504.22 66.7ZM473.95 84.28C464.43 84.28 456.71 76.01 456.71 65.82C456.71 55.63 464.43 47.35 473.95 47.35C483.47 47.35 491.19 55.62 491.19 65.82C491.19 76.02 483.47 84.28 473.95 84.28Z" fill="#1D1D1B"/>
</g>
<defs>
<clipPath id="clip0_31_843">
<rect width="504.22" height="174.69" fill="white"/>
</clipPath>
</defs>
</svg>
