<svg width="43" height="47" viewBox="0 0 43 47" fill="none" xmlns="http://www.w3.org/2000/svg">
<path fill-rule="evenodd" clip-rule="evenodd" d="M11.5 3C11.5 2.44772 11.9477 2 12.5 2H19.5C20.0523 2 20.5 2.44772 20.5 3V10C20.5 10.5523 20.0523 11 19.5 11H12.5C11.9477 11 11.5 10.5523 11.5 10V3ZM13.5 4V9H18.5V4H13.5Z" fill="white"/>
<path fill-rule="evenodd" clip-rule="evenodd" d="M22.5 3C22.5 2.44772 22.9477 2 23.5 2H30.5C31.0523 2 31.5 2.44772 31.5 3V10C31.5 10.5523 31.0523 11 30.5 11H23.5C22.9477 11 22.5 10.5523 22.5 10V3ZM24.5 4V9H29.5V4H24.5Z" fill="white"/>
<path fill-rule="evenodd" clip-rule="evenodd" d="M22.5 14C22.5 13.4477 22.9477 13 23.5 13H30.5C31.0523 13 31.5 13.4477 31.5 14V21C31.5 21.5523 31.0523 22 30.5 22H23.5C22.9477 22 22.5 21.5523 22.5 21V14ZM24.5 15V20H29.5V15H24.5Z" fill="white"/>
<path fill-rule="evenodd" clip-rule="evenodd" d="M11.5 14C11.5 13.4477 11.9477 13 12.5 13H19.5C20.0523 13 20.5 13.4477 20.5 14V21C20.5 21.5523 20.0523 22 19.5 22H12.5C11.9477 22 11.5 21.5523 11.5 21V14ZM13.5 15V20H18.5V15H13.5Z" fill="white"/>
<path d="M1.14773 43V31.3636H5.51136C6.4053 31.3636 7.1553 31.5303 7.76136 31.8636C8.37121 32.197 8.83144 32.6553 9.14205 33.2386C9.45644 33.8182 9.61364 34.4773 9.61364 35.2159C9.61364 35.9621 9.45644 36.625 9.14205 37.2045C8.82765 37.7841 8.36364 38.2405 7.75 38.5739C7.13636 38.9034 6.38068 39.0682 5.48295 39.0682H2.59091V37.3352H5.19886C5.72159 37.3352 6.14962 37.2443 6.48295 37.0625C6.81629 36.8807 7.0625 36.6307 7.22159 36.3125C7.38447 35.9943 7.46591 35.6288 7.46591 35.2159C7.46591 34.803 7.38447 34.4394 7.22159 34.125C7.0625 33.8106 6.81439 33.5663 6.47727 33.392C6.14394 33.214 5.71402 33.125 5.1875 33.125H3.25568V43H1.14773ZM13.7088 43.1761C13.1558 43.1761 12.6577 43.0777 12.2145 42.8807C11.7751 42.6799 11.4266 42.3845 11.169 41.9943C10.9152 41.6042 10.7884 41.1231 10.7884 40.5511C10.7884 40.0587 10.8793 39.6515 11.0611 39.3295C11.2429 39.0076 11.491 38.75 11.8054 38.5568C12.1198 38.3636 12.474 38.2178 12.8679 38.1193C13.2656 38.017 13.6766 37.9432 14.1009 37.8977C14.6122 37.8447 15.027 37.7973 15.3452 37.7557C15.6634 37.7102 15.8944 37.642 16.0384 37.5511C16.1861 37.4564 16.2599 37.3106 16.2599 37.1136V37.0795C16.2599 36.6515 16.133 36.3201 15.8793 36.0852C15.6255 35.8504 15.2599 35.733 14.7827 35.733C14.2789 35.733 13.8793 35.8428 13.5838 36.0625C13.2921 36.2822 13.0952 36.5417 12.9929 36.8409L11.0724 36.5682C11.224 36.0379 11.474 35.5947 11.8224 35.2386C12.1709 34.8788 12.5971 34.6098 13.1009 34.4318C13.6046 34.25 14.1615 34.1591 14.7713 34.1591C15.1918 34.1591 15.6103 34.2083 16.027 34.3068C16.4437 34.4053 16.8243 34.5682 17.169 34.7955C17.5137 35.0189 17.7902 35.3239 17.9986 35.7102C18.2107 36.0966 18.3168 36.5795 18.3168 37.1591V43H16.3395V41.8011H16.2713C16.1463 42.0436 15.9702 42.2708 15.7429 42.483C15.5194 42.6913 15.2372 42.8598 14.8963 42.9886C14.5592 43.1136 14.1634 43.1761 13.7088 43.1761ZM14.2429 41.6648C14.6558 41.6648 15.0137 41.5833 15.3168 41.4205C15.6198 41.2538 15.8527 41.0341 16.0156 40.7614C16.1823 40.4886 16.2656 40.1913 16.2656 39.8693V38.8409C16.2012 38.8939 16.0914 38.9432 15.9361 38.9886C15.7846 39.0341 15.6141 39.0739 15.4247 39.108C15.2353 39.142 15.0478 39.1723 14.8622 39.1989C14.6766 39.2254 14.5156 39.2481 14.3793 39.267C14.0724 39.3087 13.7978 39.3769 13.5554 39.4716C13.313 39.5663 13.1217 39.6989 12.9815 39.8693C12.8414 40.036 12.7713 40.2519 12.7713 40.517C12.7713 40.8958 12.9096 41.1818 13.1861 41.375C13.4626 41.5682 13.8149 41.6648 14.2429 41.6648ZM22.4418 37.8864V43H20.3849V34.2727H22.3509V35.7557H22.4531C22.6539 35.267 22.974 34.8788 23.4134 34.5909C23.8565 34.303 24.4039 34.1591 25.0554 34.1591C25.6577 34.1591 26.1823 34.2879 26.6293 34.5455C27.08 34.803 27.4285 35.1761 27.6747 35.6648C27.9247 36.1534 28.0478 36.7462 28.044 37.4432V43H25.9872V37.7614C25.9872 37.178 25.8357 36.7216 25.5327 36.392C25.2334 36.0625 24.8187 35.8977 24.2884 35.8977C23.9285 35.8977 23.6084 35.9773 23.3281 36.1364C23.0516 36.2917 22.8338 36.517 22.6747 36.8125C22.5194 37.108 22.4418 37.4659 22.4418 37.8864ZM33.9986 43.1705C33.1236 43.1705 32.3679 42.9886 31.7315 42.625C31.099 42.2576 30.6122 41.7386 30.2713 41.0682C29.9304 40.3939 29.7599 39.6004 29.7599 38.6875C29.7599 37.7898 29.9304 37.0019 30.2713 36.3239C30.616 35.642 31.0971 35.1117 31.7145 34.733C32.3319 34.3504 33.0573 34.1591 33.8906 34.1591C34.4285 34.1591 34.9361 34.2462 35.4134 34.4205C35.8944 34.5909 36.3187 34.8561 36.6861 35.2159C37.0573 35.5758 37.349 36.0341 37.5611 36.5909C37.7732 37.1439 37.8793 37.803 37.8793 38.5682V39.1989H30.7259V37.8125H35.9077C35.9039 37.4186 35.8187 37.0682 35.652 36.7614C35.4853 36.4508 35.2524 36.2064 34.9531 36.0284C34.6577 35.8504 34.313 35.7614 33.919 35.7614C33.4986 35.7614 33.1293 35.8636 32.8111 36.0682C32.4929 36.2689 32.2448 36.5341 32.0668 36.8636C31.8925 37.1894 31.8035 37.5473 31.7997 37.9375V39.1477C31.7997 39.6553 31.8925 40.0909 32.0781 40.4545C32.2637 40.8144 32.5232 41.0909 32.8565 41.2841C33.1899 41.4735 33.58 41.5682 34.027 41.5682C34.3262 41.5682 34.5971 41.5265 34.8395 41.4432C35.0819 41.3561 35.2921 41.2292 35.4702 41.0625C35.6482 40.8958 35.7827 40.6894 35.8736 40.4432L37.794 40.6591C37.6728 41.1667 37.4418 41.6098 37.1009 41.9886C36.7637 42.3636 36.3319 42.6553 35.8054 42.8636C35.2789 43.0682 34.6766 43.1705 33.9986 43.1705ZM41.6761 31.3636V43H39.6193V31.3636H41.6761Z" fill="white"/>
</svg>
